<svg data-name="Grupo 7" xmlns="http://www.w3.org/2000/svg" width="66" height="66"><path data-name="Caminho 6" d="M39.316 33A6.316 6.316 0 1133 26.684 6.316 6.316 0 0139.316 33zm0 0" fill="#fff"/><path data-name="Caminho 7" d="M47.772 21.824a6.275 6.275 0 00-3.6-3.6 10.487 10.487 0 00-3.518-.652c-2-.091-2.6-.111-7.657-.111s-5.659.019-7.657.11a10.493 10.493 0 00-3.518.653 6.278 6.278 0 00-3.6 3.6 10.491 10.491 0 00-.652 3.519c-.091 2-.111 2.6-.111 7.657s.02 5.659.111 7.657a10.487 10.487 0 00.652 3.518 6.275 6.275 0 003.6 3.6 10.471 10.471 0 003.519.653c2 .091 2.6.11 7.657.11s5.66-.019 7.657-.11a10.472 10.472 0 003.519-.653 6.275 6.275 0 003.6-3.6 10.5 10.5 0 00.653-3.518c.091-2 .11-2.6.11-7.657s-.019-5.659-.11-7.657a10.473 10.473 0 00-.653-3.519zM33 42.73A9.73 9.73 0 1142.73 33 9.73 9.73 0 0133 42.73zm10.115-17.571a2.274 2.274 0 112.274-2.274 2.274 2.274 0 01-2.274 2.274zm0 0" fill="#fff"/><path data-name="Caminho 8" d="M33-.001a33 33 0 1033 33 33 33 0 00-33-33zm18.835 40.812a13.9 13.9 0 01-.881 4.6 9.689 9.689 0 01-5.542 5.542 13.913 13.913 0 01-4.6.881c-2.021.092-2.666.114-7.812.114s-5.792-.022-7.813-.114a13.912 13.912 0 01-4.6-.881 9.689 9.689 0 01-5.542-5.542 13.9 13.9 0 01-.881-4.6c-.093-2.021-.115-2.667-.115-7.813s.022-5.792.114-7.812a13.9 13.9 0 01.88-4.6 9.7 9.7 0 015.542-5.542 13.915 13.915 0 014.6-.881c2.021-.092 2.666-.114 7.812-.114s5.792.022 7.812.115a13.918 13.918 0 014.6.88 9.692 9.692 0 015.542 5.542 13.9 13.9 0 01.881 4.6c.092 2.021.114 2.666.114 7.812s-.022 5.792-.114 7.812zm0 0" fill="#fff"/></svg>